<?xml version="1.0" encoding="utf-8"?>
<!-- Generator: Adobe Illustrator 22.0.0, SVG Export Plug-In . SVG Version: 6.00 Build 0)  -->
<svg version="1.1" id="图层_1" xmlns="http://www.w3.org/2000/svg" xmlns:xlink="http://www.w3.org/1999/xlink" x="0px" y="0px"
	 viewBox="0 0 16 16" style="enable-background:new 0 0 16 16;" xml:space="preserve">
<style type="text/css">
	.st0{fill:#FEFEFE;}
	.st1{fill:#0B0403;}
	.st2{fill:#5C3331;}
	.st3{fill:#FBF3E2;}
	.st4{fill:#FB8A92;}
	.st5{fill:#FA8892;}
	.st6{fill:#F88992;}
	.st7{fill:#F58792;}
	.st8{fill:#F5989E;}
	.st9{fill:#DA2A32;}
	.st10{fill:#EBEDF0;}
	.st11{fill:#EFC2BB;}
	.st12{fill:#BF7D87;}
	.st13{fill:#B27D86;}
	.st14{fill:#EAE8E9;}
	.st15{fill:#83676A;}
	.st16{fill:#C7838C;}
	.st17{fill:#CE8087;}
	.st18{fill:#B07A81;}
	.st19{fill:#9E2E34;}
	.st20{fill:#74534F;}
	.st21{fill:#EDB9B1;}
	.st22{fill:#332D27;}
	.st23{fill:#191611;}
	.st24{fill:#1C150F;}
	.st25{fill:#1D1C13;}
</style>
<g>
	<g>
		<path class="st0" d="M144-82.5c0-65.1,0-130.3-0.1-195.4c0-3.3,0.5-4.2,4-4.2c130.6,0.1,261.3,0.1,391.9,0c3.8,0,4.3,1,4.3,4.4
			c-0.1,130.5-0.1,260.9,0,391.4c0,3.5-0.5,4.4-4.3,4.4c-130.6-0.1-261.3-0.1-391.9,0c-3.6,0-4-0.9-4-4.2C144,48.5,144-17,144-82.5z
			"/>
		<path class="st1" d="M391.2-44.3c2,0.7,3-0.8,4.3-1.3c1.8-0.7,3.4-0.2,4.6,0.9c3.4,3.2,3.2,8.1,5.3,12c1.1,2-2.4,4.3-5.1,5.1
			c-2.4,0.8-5,1.6-7-0.6c-2.1-2.3,0.4-4.3,1.2-6.5c-8.3,0.9-16.6-0.5-23.5-3.7c-6.2-2.9-11.2-1.9-17-0.9
			c-10.8,1.8-21.7,1.8-32.2-1.3c-5.4-1.5-10.9-0.2-16.1-2.5c-1.4-0.6-2.1,0.7-2.9,1.5c-1.9,2.1-4,3.6-6.9,3.1
			c-1.2-0.2-1.8,0.1-2.4,1.1c-2.6,4.5-5.9,2.8-8.7,0.5c-3-2.5-3.7-5.5,0.3-8.1c0.4-0.2,0.6-0.8,0.8-1.2c4.1-7.8,5.7-8.1,11.8-2.3
			c0.2-0.4,0.8-1,0.7-1.2c-5.9-9.5-3.9-19.1-0.4-28.8c0.3-0.9,0.7-1.9,1.2-2.8c2.7-4.5,5.3-8.3-2.2-11.7c-3.9-1.8-4.6-7-3.5-11.6
			c3.7-15.6,26.1-30.8,41.9-28.4c8.9,1.4,12.2,5.2,12.6,14.7c0.1,1.4,0,2.2,1.7,2.2c2-0.1,1.2-1.4,1.2-2.4
			c0.1-8.7,4.5-13.3,13.6-13.7c3.1-0.1,5.5-1,8.1-2.8c7.4-5,15.9-6.5,24.6-7c1.8-0.1,3.2,0.1,3.8-2.5c0.8-3.5,3.9-4.2,7.2-3.6
			c3.5,0.7,6.8,4.9,6.3,8c-0.6,3.4-3.4,4.6-6.3,4.4c-2.8-0.3-2.9,1.2-3.3,3.1c-0.6,2.8-1,5.6-2,8.2c-2.8,6.7-3.8,12.7-0.4,20
			c3.7,8-0.2,14.2-8.7,16.7c-2.8,0.8-1.7,1.8-1.1,3.4c3.6,9.6,5.7,19.4,3.2,29.8C395.2-50.6,393.4-47.4,391.2-44.3z"/>
		<path class="st2" d="M346.6-108c16.7-0.1,30.8,10.1,33.9,24c1.5,6.6,0.1,12.8-2.6,18.9c-0.5,1.1-1.3,2.4-2.5,1.9
			c-3.9-1.6-8-0.5-12.1-1.7c-15.8-4.6-31.7-8.2-48.4-6.3c-2.7,0.3-2.9-1.2-3-3.3c-0.8-15.7,9.1-29,24.5-32.3
			C339.9-107.6,343.5-108.4,346.6-108z"/>
		<path class="st3" d="M312-55c1.9-3.8,4.7-7.5,1.5-12.5c8.8-1.2,16.8-0.4,24.7,0.7c7.6,1,15.1,2.4,22.4,4.8
			c1.8,0.6,4.3,0.1,4.8,3.3c0.2,1.6,1.8,0.4,2.8-0.1c4-2,7.1-1.1,8.6,2.4c1.6,3.8-0.6,10.1-4.3,10.2c-12.1,0.3-23.5,5.9-35.9,4.2
			c-7.7-1.1-15.6-1.1-22.6-5.1c-0.2-1.6,1.2-1.7,2.1-2.2c1.2-0.8,2.8-1.4,2-3.3c-1.2-2.7,1.3-3.2,2.6-4.4c0.6-0.9,1-2.2-0.1-2.5
			c-2.4-0.7-2,1.9-3,3.1C315.9-55.2,314.6-52.6,312-55z"/>
		<path class="st4" d="M380.3-94.1c-4.4-7-10.7-11.7-18.2-15c-0.7-0.3-0.7-0.6,0-0.8c2.9-0.3,3.2-1.6,1.1-3.4
			c-0.8-0.7-2.2-0.7-3.2-1.2c-2.1-0.8-5.2-0.2-5.3-4c-0.1-3.6,0.8-6.6,4.1-8.4c3-1.6,6.3-2,9.7-1.7c11.9,1,27.2,13.2,30.9,24.6
			c2.4,7.5-0.7,12.6-7.8,13.2c-4,0.4-4.2-3.7-6.6-5c-1.2-1.3-1.9-0.7-2.4,0.6C382.1-94.1,381.9-92.9,380.3-94.1z"/>
		<path class="st5" d="M325-128c4.9-1.8,9.8-1.7,14.6,0.2c3.6,1.5,5.2,4.3,5.3,8.2c0.1,3.7-3.4,3.3-5,4.9c-7.8,7.5-20.6,7.9-26,18.7
			c-1.2,1.1-2.4,0.7-3.6-0.1c-0.8,0.2-1.9,0.1-2.3,0.6c-1.9,2.8-4.2,2.9-6.8,1.4c-2.9-1.6-4.3-4.1-4.2-7.3c0.3-5.6,3.1-9.9,7-13.7
			c3.7,0.5,7.5,2.7,10.7-1.6c2.3-3,7.1-3.8,7.7-8.6C322.5-126.6,324.2-127,325-128z"/>
		<path class="st6" d="M383.7-39.8c-3.1-0.2-6.3-0.3-9.4-0.5c-0.7-0.1-1.3-0.7-2-1.1c8.2-4.9,9.5-7.6,7.6-17c-0.2-1.1-0.2-2,0.3-2.8
			c4.7-8,4.8-16.7,3.8-25.5c-0.2-1.3-1.3-2.8,1.1-3.2c4.3,5.6,6.6,12,7.9,18.8c2.1,10.6,0.1,20-7.2,28.2
			C385-41.9,386.4-39.5,383.7-39.8z"/>
		<path class="st7" d="M309.2-86.8c-0.9,6.6-3.3,13.3,1,19.7c1.8,2.7,1.4,5.7-0.5,8.4c-2.7,3.8-3.5,7.8-0.5,12.9
			c-4.1-1.9-7-1.4-9.2,1.8l0.1,0.1c1.8-3.9,2.1-7.3-0.2-11.5c-3.4-6.2-1.4-12.9,0.8-19.3c1.6-4.7,3.6-9.2,6.2-13.4
			C308.2-88.6,309.3-88.7,309.2-86.8z"/>
		<path class="st8" d="M325-128c-1,7.5-7.7,10.4-12.4,14.8c-3.5,3.2-5.8-0.9-8.6-1.8C309.6-121.5,316.2-126.5,325-128z"/>
		<path class="st9" d="M394-128c-3.5-2.2-6.6-4.9-11-6.8c5.8-3.5,11.7-3.3,17.6-3.1c1,0,1.6,0.7,1.4,1.6c-0.6,4.3-0.6,8.8-4,12.3
			C397.2-125.9,395.9-127.3,394-128z"/>
		<path class="st10" d="M396.8-116.2c-7.3-6.5-13.8-12.3-22.6-15.2C380.5-135,394.9-125.6,396.8-116.2z"/>
		<path class="st11" d="M312-55c2.1,0.3,3.5-1.1,5.1-2c1.8-0.8,3.4-0.4,4.9,0.9c-1.2,1.3-3.8,1.1-2.7,4.6c1,3.2-3.3,3-5.3,4.4
			C310.4-49,309.8-51.6,312-55z"/>
		<path class="st12" d="M300-43.9c-1.4,2.4-3.1,2.6-5.3,1c-2.3-1.7-3.6-1.1-3.8,1.8c-0.1,1.1,0,2.6-1.4,2.7
			c-0.8,0.1-1.9-0.6-2.5-1.3c-1.5-1.6,0.8-1.6,1.2-2.5c0.1-0.3,0.5-0.5,0.6-0.8c1.2-5.6,3.2-7.6,7.2-1.7
			C296.9-43.2,298.7-44.3,300-43.9C300.1-43.9,300-43.9,300-43.9z"/>
		<path class="st13" d="M393-40c1.4-1.1,3.1-2.9,4.7-1.8c3,2.1,1.2,6.5,3.5,9.4c0.5,0.7-2,1.6-3.7,1.9c0-2.5,1.2-5.1-0.4-7.5
			c-1.1-1.6-2.6-0.9-4.1-0.9c-0.3-0.2-0.4-0.5-0.3-0.7C392.8-39.9,392.9-40,393-40z"/>
		<path class="st14" d="M407.3-145c2.4,0.3,4,1.9,4.3,4.2c0.3,2.1-1.6,2.2-3.1,2.2c-2.5-0.1-4-1.9-4.3-4
			C403.8-144.5,405.6-145,407.3-145z"/>
		<path class="st15" d="M362.2-109.9c-0.1,0.3-0.1,0.6,0,0.8c-7.2-2.5-14.7-1.8-22.2-2.3C347.5-113.2,355-113.3,362.2-109.9z"/>
		<path class="st16" d="M309.2-86.8c-0.5-0.9-1.4-1.2-2.3-1.3c1.1-2.7,2.2-5.3,3.3-8c1.2-1.1,2.4,0.1,3.6,0.1
			C312.3-92.9,310.7-89.8,309.2-86.8z"/>
		<path class="st17" d="M385-90c-1.3,0.8-0.8,2.1-1.1,3.2c-1.2-2.4-2.4-4.9-3.6-7.3c2,0.6,1.5-5.3,4.6-1.7c-1.6-0.2-2.5,0.1-1.6,2
			C383.9-92.5,385.1-91.5,385-90z"/>
		<path class="st18" d="M393-40c0,0.4,0,0.7,0,1.1c-3.3,1.4-6.5,2.2-9.3-0.9c1.5-0.6,0.9-2.5,2.1-3.2C386.3-37.4,389.7-38.8,393-40z
			"/>
		<path class="st19" d="M394-128c3.1-0.5,4.4,0.9,4.1,3.9C396.2-124.8,395.1-126.5,394-128z"/>
		<path class="st20" d="M343.3-94.9c2.8-0.4,5.4,0.4,7.6,2c1.7,1.3,2.6,2.9,1.6,5.2c-1.2,2.5-3,1.6-4.6,0.8
			c-3.9-1.9-7.9-2.3-12.1-2.1c-1.3,0.1-2.9,0-3.3-1.6c-0.4-1.8,1.1-2.8,2.6-3.1C337.7-94.4,340.4-95.5,343.3-94.9z"/>
		<path class="st21" d="M346.9-53.2c1,0.8,2,1.6,3,2.5c1.5,1.4,1.4,2.8,0.3,4.4c-1.2,1.7-2.8,1.5-4.4,1c-1.7-0.6-2.3-2.5-1.5-3.6
			c1.5-2.1,0.5-3-1.2-3.9C344.2-54.1,345.5-54.1,346.9-53.2z"/>
		<path class="st22" d="M328.6-53.9c1.8-1.9,4.2,2.8,5.8-0.6c0.1-0.1,1.1,0.7,1,1.4c-0.1,1.4-0.8,2.8-2.3,2.9
			c-2.1,0.1-4.2-0.3-6.3-0.6c-1.1-0.2-1.6-1.2-1.5-2.3C325.8-55.8,327.6-53.6,328.6-53.9z"/>
		<path class="st23" d="M346.9-53.2c-1.3,0.1-2.5,0.2-3.8,0.3c-1.7-1.6-2.1-3.4-0.5-5.1c1.1-1.2,2.6-1.4,4-0.3
			C348.6-56.8,348-55,346.9-53.2z"/>
		<path class="st24" d="M372.3-52.8c-1.2-1.2-3.8,2.9-4.4-0.4c-0.4-2.4,2.3-3.3,4.5-3.3c1.5,0,3.2,0.7,3.3,2.4
			C375.7-52.1,374.2-51.9,372.3-52.8z"/>
		<path class="st25" d="M321.9-56.1c-1.8,0.7-3.4,0.3-4.9-0.9c-0.3-1.9-0.2-3.6,1.8-4.5c1.2-0.5,2.2-0.2,3.1,0.6
			C323.7-59.2,322.9-57.6,321.9-56.1z"/>
	</g>
</g>
</svg>
