<?xml version="1.0" encoding="utf-8"?>
<!-- Generator: Adobe Illustrator 22.0.0, SVG Export Plug-In . SVG Version: 6.00 Build 0)  -->
<svg version="1.1" id="图层_1" xmlns="http://www.w3.org/2000/svg" xmlns:xlink="http://www.w3.org/1999/xlink" x="0px" y="0px"
	 viewBox="0 0 16 16" style="enable-background:new 0 0 16 16;" xml:space="preserve">
<style type="text/css">
	.st0{fill:#FEFEFE;}
	.st1{fill:#090D0F;}
	.st2{fill:#0E1215;}
	.st3{fill:#161616;}
	.st4{fill:#0E1519;}
	.st5{fill:#4D4E4E;}
	.st6{fill:#4E4F50;}
	.st7{fill:#1A1A1A;}
	.st8{fill:#191919;}
	.st9{fill:#221E12;}
	.st10{fill:#1B1B1B;}
	.st11{fill:#1C1C1C;}
	.st12{fill:#383838;}
	.st13{fill:#3D3B3C;}
	.st14{fill:#362421;}
	.st15{fill:#3C3A2B;}
	.st16{fill:#1E2B2D;}
	.st17{fill:#555353;}
	.st18{fill:#505050;}
	.st19{fill:#B1DDEA;}
	.st20{fill:#959695;}
	.st21{fill:#969696;}
	.st22{fill:#C5CACB;}
	.st23{fill:#C5C8CB;}
	.st24{fill:#DEE2E2;}
	.st25{fill:#F2EFF1;}
	.st26{fill:#F4EDF5;}
	.st27{fill:#FAFBF9;}
	.st28{fill:#E9714B;}
	.st29{fill:#2C100F;}
	.st30{fill:#464B48;}
	.st31{fill:#ECECEF;}
	.st32{fill:#EEEEEE;}
	.st33{fill:#B2DADF;}
	.st34{fill:#D66E56;}
	.st35{fill:#E9E8E8;}
	.st36{fill:#FBFBFB;}
	.st37{fill:#EFEBB3;}
	.st38{fill:#E5E5E5;}
	.st39{fill:#63605B;}
	.st40{fill:#C46E5C;}
	.st41{fill:#313131;}
	.st42{fill:#222222;}
	.st43{fill:#F9F796;}
	.st44{fill:#EDEDED;}
	.st45{fill:#202020;}
	.st46{fill:#C9C9C9;}
</style>
<g>
	<path class="st0" d="M572.5-86.5c0,65.1,0,130.3,0.1,195.4c0,3.3-0.6,4.1-4.1,4.1c-130.6-0.1-261.3-0.1-391.9,0
		c-3.9,0-4.2-1.1-4.2-4.5c0.1-130.5,0.1-260.9,0-391.4c0-3.5,0.6-4.4,4.3-4.4c130.5,0.1,260.9,0.1,391.4,0c4,0,4.5,1.1,4.5,4.7
		C572.5-217.1,572.5-151.8,572.5-86.5z"/>
	<path class="st1" d="M394.3-11.9c-8.8,0-17.6,0-26.4-0.2c-2.8-0.1-4,0.7-3.6,3.5c0.1,0.5,0,1-0.1,1.5c-1.6,7.8-10.7,13.9-18.9,12.9
		c-12-1.5-17.8-7-17.7-16.8c3.6-1.2,3.1,2.2,3.7,3.7c3.7,9.8,17.3,11.8,23.9,6.6c1.9-1.5,3.6-3,4.3-5.3c0.3-0.9,0.8-2.3-0.1-2.8
		c-1.2-0.5-1.3,1.1-1.8,1.8c-4.4,6.5-9.4,8.5-16.1,6.3c-3.7-1.2-6.3-3.6-7.6-7.3c-0.5-1.4-0.8-3,1.4-3.5c3.1,3.9,6.6,7,12.1,5.9
		c1.1-0.2,2.3-0.4,3.3-1.1c1-0.8,2.7-1.8,1.6-3c-1.1-1.1-1.8,0.8-2.5,1.5c-2.3,2.4-5.3,3.1-7.3,0.5c-2.3-2.9-5-3.5-8.1-3.8
		c-2.5,1.1-4.8,0.2-7-0.7c-3.4-1-8.9,0.6-8-6.2c0.3-2.2,0-4.4,3.3-4c2.3,0.3,1.5-2.2,2.6-2.9c1.6-0.3,1.9,1,2.3,2
		c0.6,6.5,0.6,6.5,7.1,6.5c28.5,0.3,56.9,1.5,85.4,1c2.2,0,5.4,1.2,6.2-1.5c0.8-2.7-2.2-4.1-4.1-5.6c-1.7-1.3-3.9-2.1-4.9-4.2
		c0-1.8,0.9-1.9,2.3-1.2c5.5,1.7,9.7,4.8,11.6,10.4c0.5,1.4,1.1,3.5,0.5,4.3c-3.8,5.1-1,12.9-7.4,17.1c-5.7,3.7-15.8,4.6-22.2,0.7
		c-5.4-3.3-8.2-8-7.5-14.5c2.8,0.2,3.2,2.6,4,4.5c3.8,9.4,13.6,9.9,20,8c4.1-1.2,6.1-4.4,7.2-8.2c0.3-1.2,0.8-3.1-0.7-3.4
		c-1.4-0.3-1.2,1.6-1.5,2.6c-3.1,9.4-14.3,11.8-21.1,4.6c-1.9-2-2.8-4.5-2.5-7.3c0.1-1.3,1.1-2,2.4-2.1c2.2,3.4,3.4,7.6,8.5,8.1
		c3.2,0.4,5.5-0.6,7.2-3.3c0.5-0.8,1.1-2.1,0.3-2.7c-1.1-0.9-1.6,0.5-2.2,1.2c-0.6,0.8-1.2,1.6-2.1,2.1c-2.4,1.3-4.8,1.1-5.9-1.4
		c-1.4-3.1-3.7-3.9-6.7-4C398.9-10.4,396.5-10.3,394.3-11.9z"/>
	<path class="st2" d="M333.4-36.1c1.7-6.1,6.8-4.9,11.1-4.9c3.4,0,3.8-0.6,2.7-3.8c-3.1-8.8-2.5-17.6,1.4-26.2
		c1.5-0.1,1.6,1,1.9,2.1c-0.2,3.9-1.3,7.7-1.6,11.5c0,0.7,0,1.5,0,2.2c0.5,3.1,0.7,6.2,1.7,9.3c2.5,5.3,6.5,8.8,12,10.6
		c6.1,2,11.6,4.9,15.9,9.9c0.8,0.9,1.7,1.7,2.7,2.2c1.7,0.8,3.6,1.4,5.2,0.3c1.5-1.1,0.4-2.8,0.2-4.2c-0.1-1-0.3-2,0-3
		c0.3-0.7,0.8-1.2,1.6-1.2c2.2,1.3,2.6,3.7,3.4,5.8c0.9,2.5,2.2,2.6,4,0.9c2.8-2.6,5.6-5.2,6.3-9.2c0.8-1.1,0.9-3.5,3.3-1.8
		c1.9,8.1-4.4,17-13,17.7c-7.8,0.6-15.6,0.1-23.4,0.3c-3.1,0.1-4.4-2.1-5.2-4.5c-1.8-5.8-5.5-8-11.6-7.7c-5.9,0.3-12,1.1-17.7-1.6
		C332.5-32.6,332.8-34.3,333.4-36.1z"/>
	<path class="st3" d="M406.5-95.9c-1.7,11.1-9.9,16.2-19,20.5c-1.3,0.6-2.7,1.3-4,1.9c1.1,1.1,2.1,2.6,3.5,3.3
		c4.3,2.1,8.5,4.8,13.4,5.4c-1.4,3.7-4.1,1.3-6.3,1.3c-3.5-0.7-6.6-2.2-9.2-4.6c-2.8-2.8-6.1-3.6-9.9-3.4c-7,0.4-13.8-0.8-20.4-3.2
		c-1.2-0.6-2.4-1.1-3.4-2.1c-10.8-8.4-18.3-18.8-19.4-32.9c-0.5-7,0.4-13.8,3.7-20.1c1-0.1,1.4,0.5,1.7,1.3c0.6,5-1.6,9.7-1.6,14.8
		c0,26,22.3,43,47.6,35.6c8.4-2.4,15-7,18.8-15.1c0.7-1.5,1.5-3,3.1-3.8C406.1-97.2,406.8-97.1,406.5-95.9z"/>
	<path class="st4" d="M404.4-36c-0.6,1-1.2,2-1.8,3c-1.5-5.1-5.7-9.6-3.6-15.5c0.8-1.5,0.2-3,0.2-4.5c0.3-0.4,0.7-0.6,1.1-0.8
		c1.4-0.4,2.8-0.4,4.1,0.3c0.1,0.1,0.3,0.2,0.4,0.3c1.4,1.3,2.5,3.2,4.9,2.5c0.9-0.3,1.5-0.9,1.4-1.8c-0.2-2.4-2.5-2.7-4.1-3.7
		c-0.6-0.4-1.1-1-1.4-1.7c-0.3-1-0.3-2,0-3c0.4-0.7,0.8-1.3,1.7-1c2,2.8,4.6,3.6,8,3.9c6.6,0.5,13.1,7.1,14.1,13.6
		c0.3,2.3-0.2,3.4-2.7,3.4c-4.1,0-8.3,0.4-12.4,0.3c-3.3-0.1-3.6,0.9-2.2,3.7c1.8,3.6,1.9,8.5,7.5,9c-0.7,0.3-1.4,0.5-2.1,0.8
		c-3,1.8-5,0.5-6.3-2.3c-0.9-2-1.8-3.9-2.4-6C407.7-39.9,406.2-38.6,404.4-36z"/>
	<path class="st5" d="M394.3-11.9c2.8,0,5.5,0.1,8.3,0.1c0.2,0.4,0.1,0.6-0.3,0.9c-2.7,4.1-1,8,4.4,10.7c7.4,3.6,15-0.4,15.7-8.3
		c0.2-1.7-0.1-3.4,2.4-3.4c2.8,0,2.6,1.9,2.6,3.8C427.6-2.4,423.7,3,418,4c-11.8,2-17.3-0.4-21.4-10.6c-0.5-1.2-1.3-2.3-2-3.4
		C394.5-10.6,394.4-11.2,394.3-11.9z"/>
	<path class="st6" d="M335.3-10.9c-1.7,4.1,1.3,6.4,3.9,8c4.1,2.5,8.8,3.2,13.2,0.2c2.4-1.6,4.3-3.7,5-6.7c0.3-1.4,0.4-2.7,2.3-2.5
		c2.3,0.2,1.8,2,1.8,3.4c0,6.6-8.5,12.9-15.7,12.2c-8.7-0.8-14.7-4.6-16.7-13.6c-0.1-0.4-1-0.7-1.5-1c-0.1-0.3-0.1-0.7-0.2-1
		c2.7,0,5.4,0,8.1,0C335.8-11.5,335.7-11.2,335.3-10.9z"/>
	<path class="st7" d="M397.7-144.4c1.6,7.1,7.9,12,9.3,19.3c0.2,1,0.5,1.9,0.7,2.8c0.4,1-0.1,1.4-1,1.6c-2.5-1.5-3.1-4.2-4.3-6.5
		c-10.1-19.8-27.6-26.4-48.3-18c-1.5,0.6-3,1.4-4.8,0.9c-0.8-0.3-1.3-0.9-1.3-1.8c1-3.5,4.1-4.2,6.9-5c13.2-3.9,25.9-3.1,38,4
		C394.8-146.8,396.1-145.3,397.7-144.4z"/>
	<path class="st8" d="M397.7-144.4c-1.8,0.8-2.4-1.1-3.7-1.6c-2.1-0.6-3-2.4-4-4c-10.6-17.1-34.8-11.4-42.6,0.1
		c-1.9,2.7-3.3,5.8-5.7,8.1c-0.9,0.1-1.5-0.1-1.2-1.2c3-12.2,14.4-21.1,27.8-21.6C381.5-165,393.7-156.7,397.7-144.4z"/>
	<path class="st9" d="M406.5-95.9c-0.3-0.4-0.6-0.7-0.9-1.1c-1.5-1.7-3.2-2.8-5.6-2.7c-8,0.4-15.3-10.6-14.7-17.9
		c0.3-4,2.1-7.3,6.6-8.2c0.8,0.1,1.4,0.4,1.8,1.1c0.2,0.7,0.1,1.3-0.3,1.9c-4.7,6.8-3.9,11.6,2.7,16.6c0.4,0.2,0.8,0.4,1.2,0.6
		c2.6,1.3,5.5,2.2,7.8,0c2.5-2.4,2.1-5.6,0.6-8.6c-0.8-1.6-2-3-1.8-5c3.1-2.7,3.5,0.3,4.4,2.1C412.5-109.6,409.3-102.8,406.5-95.9z"
		/>
	<path class="st10" d="M277.3-26.3c0.6-0.5,1.1-1.4,1.8-1.5c2.8-0.5,10.9,6.9,10.5,9.7c-0.5,4.1-4.9,4.8-7,7.6
		c-1.3,1.7-3.5-0.6-5.4-1.4c-5.1-2.2-7.4-4.3-2.8-9.1c0.9-0.5,1.3,0.1,1.6,0.8c-0.5,2.9,1.6,4.1,3.7,4.9c2.2,0.8,2.5-2.1,4.2-2.6
		c1.4-0.4,0.9-1.7-0.1-2.2c-2.3-1-3.3-3.7-5.8-4.4C277.3-25,276.9-25.4,277.3-26.3z"/>
	<path class="st11" d="M302.6-31.1c0,2.3-5.8,7.1-8.5,7c-1.9,0-7.3-5.9-6.6-7.9c1.1-3.3,3.9-5.6,6.9-6.8
		C296.5-39.8,302.6-33.7,302.6-31.1z"/>
	<path class="st12" d="M308.2-25.5c2.7,2,5.2,4.3,5.5,7.6c0.3,2.8-2.1,4.8-4.4,4c-2.5-0.9-7.4-0.5-6.6-4.8
		C303.2-20.9,304.9-24.2,308.2-25.5z"/>
	<path class="st13" d="M340.5-143c0.3,0.3,0.6,0.7,0.9,1c2.3-1.4,3.4-4.9,7.1-4c0.4,0.4,0.8,0.7,1.2,1.1c-2.4,4.7-7.4,7.4-9.5,12.3
		c-0.7,1.6-1.2,3.5-3.5,3.8c-0.3-0.4-0.7-0.8-1-1.2C336.8-134.4,339.9-138.3,340.5-143z"/>
	<path class="st14" d="M407.4-61.9c-0.4,0.4-0.7,0.8-1.1,1.2c-1.2,0.3-2.2-0.3-3.3-0.6c-3-0.7-5.1-0.2-5.7,3.3
		c-0.4,1.9-0.9,3.8-2.5,5.2c-1.6,0.5-2.1-0.7-2.7-1.7c-0.4-3.7,1.5-6.8,2.3-10.2c2-0.3,4.1,2.2,6.1-0.1
		C403-64.6,405.7-64.4,407.4-61.9z"/>
	<path class="st15" d="M393.5-124c-0.4-0.4-0.9-0.8-1.3-1.2c2.3-3.3,5.1-1.9,7.9-0.9c2.8,0.9,4.6,3.1,6.5,5.2
		c0.4-0.4,0.8-0.9,1.2-1.3c1.3,1.6,0.8,3.5,0.7,5.3c-1.3-0.7-1.6-3.6-4-1.8C400.4-119.9,397.2-122.6,393.5-124z"/>
	<path class="st16" d="M333.4-36.1c0.3,1.4-0.4,3.1,1.2,4.2c-2,3.6-4.9,6.5-8.1,9c-0.2-0.9-0.2-1.8-1.2-2.2c0.5-2.8,2.1-5.1,4.6-6.2
		C332.3-32.3,332.5-34.3,333.4-36.1z"/>
	<path class="st17" d="M351.3-76.9c1.1,0.2,2.3-0.5,3.2,0.7c-0.9,2.9-1.8,5.9-5,7.3c-0.3-0.7-0.6-1.3-1-2
		C349.5-72.9,350.4-74.9,351.3-76.9z"/>
	<path class="st18" d="M275.4-20.2c-0.4-0.3-0.7-0.6-1.1-0.9c2.7-0.8,1.3-3.8,2.9-5.2c0.4,0.4,0.7,0.8,1.1,1.2
		C279.9-21.1,279.4-20.4,275.4-20.2z"/>
	<path class="st19" d="M326.6-22.9c1.8-3.8,4.5-6.8,8.1-9c6.1,1.3,12.2,1.1,18.3,1c8.1,0,9.6,0.9,12,8.7c0.8,2.7,1.3,3.8,4.9,3.4
		c6.2-0.7,12.6-0.1,18.9,0c9.5,0.2,16.6-7.4,15.7-17.2c1-1.4-1.8-4.3,1.8-4.7c3.2-0.4,3,2.3,3.7,4.2c0.5,1.6,1.4,3.1,1.7,4.7
		c0.6,3.5,2.5,5,6,4.6c4.1,2.5,8.8,4.2,11,8.9c1.1,2.4,1.5,4.2-2.5,4.2c-32.2-0.3-64.4-0.5-96.6-0.6c-3,0-3.9-0.9-3.2-3.8
		C326.5-19.9,326.4-21.4,326.6-22.9z"/>
	<path class="st20" d="M402.4-10.9c0.2-0.3,0.3-0.5,0.3-0.9c2.7,0,6.3-1.7,5.9,3.6c-0.1,1.4,1.3,2.2,2.8,2.2
		c1.9,0.1,3.4-0.8,3.7-2.6c0.4-2.2,1-4.3,3.7-3.1c2.7,1.2,1.5,3.7,0.7,5.6c-1.5,3.5-4.3,5-8,4.3C406.3-2.6,402.2-4.7,402.4-10.9z"/>
	<path class="st21" d="M335.3-10.9c0.1-0.3,0.1-0.7,0.2-1c2.9,0,6.1-1.4,7.4,3.3c0.8,2.9,5.3,2.4,6.4-0.8c0.7-1.9,1.3-2.9,3.3-2.6
		c0.8,0.1,2,0.3,2.1,0.7c0.5,1.7-0.4,3.2-1.4,4.5C348.7-1,338.9-3.2,335.3-10.9z"/>
	<path class="st22" d="M411.9-8.2c-1.2,0.2-1.5-0.6-1.6-1.4c-0.1-0.9-0.3-2.1,1-2.3c1.1-0.2,1.9,0.3,2,1.5
		C413.3-9.4,412.9-8.5,411.9-8.2z"/>
	<path class="st23" d="M345.3-12.2c1.3,0,2.2,0.2,2.1,1.6c-0.1,0.9-0.6,1.6-1.6,1.5c-1.3,0-2.2-0.7-2.2-2.1
		C343.7-12.4,344.8-12,345.3-12.2z"/>
	<path class="st24" d="M323.7-17.6c-0.3,0.8,0.2,2.3-1,2.2c-1.3,0-0.9-1.5-0.9-2.3c0-0.9-0.3-2.3,1.1-2.2
		C324.3-19.9,323.4-18.4,323.7-17.6z"/>
	<path class="st25" d="M349.5-68.9c1.9-2.3,2.1-5.7,5-7.3c1.9,0.6,3.8,1.2,5.7,1.7c6.1,1.8,12.4,1.4,18.7,1.5
		c6.3,0.2,8.8,8.1,15.4,8.1c1.9,3.8-1.7,6.5-1.9,9.9c-0.2,2.7-2,3-4.2,2.7c-4.5-0.5-8.5-2.4-12.4-4.4c-0.8-0.4-1.3-1.4-2.4-1.2
		c0.8,0.6,1.5,1.2,0.7,2.3c-1.4,1.1-3.2,1.2-4.8,0.9c-5.9-1.2-11.9-0.7-17.8-0.9c-1.5,0-3-0.2-3.9-1.6
		C348.2-61.2,348.9-65,349.5-68.9z"/>
	<path class="st26" d="M387.3-29.6c0.2,0.8,0.3,1.6,0.5,2.4c0.4,2,2.3,5,0.4,5.7c-2.6,0.9-6.3,1.8-8.7-1.3
		c-4.5-5.7-10.5-8.9-17.3-11.2c-5.6-1.9-10.3-5.1-12.4-11.1c0.6-0.7,1.4-1,2.3-1.1c5.8-0.2,11.7-0.4,17.5-0.1
		C378.3-45.9,386.3-38.3,387.3-29.6z"/>
	<path class="st27" d="M400.8-50.1c-0.6,3.5-3.1,6.9,1.5,10c1.2,0.8,0.3,4.7,0.4,7.1c-0.1,5.9-5,8.1-8.6,11.4
		c-1.5,1.4-2.7,0.3-3.1-1.5c-0.6-2.8-1.4-5.4-2.8-7.9c-2.6-3.1-3.9-6.3-1.7-10.4c1.3-2.3,0.9-5.2,1.5-7.8c0.2-1,0.3-1.9,1.3-2.5
		C391-52.6,398.8-51.6,400.8-50.1z"/>
	<path class="st28" d="M351.2-45.2c-0.5,0-1,0-1.4,0c-1.9-3-1.5-6.5-2.1-9.7c0.2-0.7,0.6-1.4,1.2-1.4c10.2,0.5,20.5,0.7,30.6,2.2
		c2.4,1.5,5.5,2.2,7.3,4.8c0.4,0.7,0.5,1.5,0.3,2.3c-0.9,2.6-1.9,5.1-5.4,4.9c-0.5-0.1-1-0.2-1.5-0.5c-2.1-2.2-4.6-3.5-7.8-3.5
		C365.4-46.9,358.3-46.7,351.2-45.2z"/>
	<path class="st29" d="M380.5-43.2c0.2,0.2,0.4,0.4,0.7,0.4c4.8,2.4,4.1-2.1,5.3-4.2c0.1-0.6,0.1-1.3,0.2-1.9
		c-0.7-3.4-4.2-2.6-6.2-3.9c-10.2-0.9-20.3-1.9-30.5-2.7c-0.7-0.1-1.5,0.5-2.3,0.7c0-0.8-0.1-1.6-0.1-2.4c8.5,0.4,17,0.8,25.5,1.2
		c0.1,0,0.4-0.1,0.4-0.2c0-0.2,0-0.5-0.1-0.7c-0.1-1.8,0.9-1.6,2-1c4.3,1.4,8.1,3.8,12.6,4.5c1.9,0.3,3.2,0,4.3-1.5
		c0.7,0.7,1.4,1.3,2.1,2c1.5-1.2,3.1-1.4,4.7-0.2c0.2,1.2,2.9,1.1,1.5,3.1c-3.5-0.2-6.9-0.5-10.4-0.7c-1-0.1-1.3,0.3-1.4,1.4
		c-0.1,3.9-0.6,7.6-2.7,11.3c-0.9,1.5,1.1,4.8,1.8,7.2c-0.3,0.4-0.6,0.9-0.8,1.3c-1-1.9-2-3.8-3.1-5.6c-3.7-6-8.8-9.9-16.1-10
		c-5.6-0.1-11.2,0-16.9,0c1.2-3,3.9-1.6,5.9-2c5.3-1,10.7-1,16,0.3C375.9-46.3,378.5-45.3,380.5-43.2z"/>
	<path class="st30" d="M346.8-33.1c-2.5-0.2-5.4,0.4-8.1-0.7c-1-0.4-3.1,0.3-2.8-1.9c0.2-1.3,0.9-2.5,2.3-3.1c2.8-1.2,14,0.8,16,3
		c0.5,0.6,1.4,1.4,1.3,1.9c-0.3,1.3-1.6,0.7-2.5,0.7C351.1-33,349.1-33.1,346.8-33.1z"/>
	<path class="st31" d="M371.9-21c-1.5-0.3-3.4,1.2-4.4-1.1c-1.2-2.7-2.6-5.3-3.6-8.1c-0.2-0.7,1.3-0.3,2-0.1c2.9,1,5.3,2.6,7.5,4.6
		c1.2,1.1,3.3,2.3,2.8,3.7C375.8-20.1,373.4-21.5,371.9-21z"/>
	<path class="st32" d="M406.5-121c-3.3-1.2-5.5-4.4-9.1-4.8c-1.8-0.2-3.6-0.9-5.2,0.6c-4.3,2-6.5,5.4-5.4,9.9
		c1.6,6.4,4.1,12.4,11.5,14.1c1.6,0.4,3.4,0.6,4.9,0.3c4.3-0.8,3.1,1.6,2.5,3.8c-11.4,22.1-34.2,28.8-55.1,15.3
		c-13.3-8.6-17.5-22-15.8-37.3c0.3-3.3,1.3-6.5,1.9-9.8c3-6.4,7-12.1,13-16.1c7.8-4.3,16.2-5.8,24.9-4.8
		c13.1,1.4,22.4,8.3,28.1,20.2C404-126.7,405.2-123.9,406.5-121z"/>
	<path class="st33" d="M413.7-42.7c-2.8,0-5.7-0.2-8.5,0.1c-2.5,0.3-3.3-0.7-3.2-3c0.1-1.3-0.6-3,0.7-3.7c1.2-0.6,1.5,1.2,2.4,1.8
		c4.8,3,10.2,0.4,10.3-5.3c0-2.9,0.8-3.2,3-2c1,0.5,2.1,1.1,3,1.8c2.7,2.3,5.8,5.3,5,8.6c-0.5,2.1-5,1.1-7.8,1.3c-1.6,0.2-3.3,0-5,0
		C413.7-43,413.7-42.9,413.7-42.7z"/>
	<path class="st34" d="M399.2-53.2c-1.6,0.1-3.1,0.2-4.7,0.2c0.5-1.6,0.9-3.1,1.4-4.7c1.7-6.4,4.7-7.2,10.4-3.1c0,0.8,0,1.7,0,2.5
		C404.9-55.3,402.2-54.2,399.2-53.2L399.2-53.2z"/>
	<path class="st35" d="M407.7-56.9c3,0.1,5.3,1.2,5.4,4.5c0.1,1.7-1.1,3.2-3,3.5c-3.2,0.5-5-1.1-5.8-4.1
		C403.7-55.7,405.5-56.5,407.7-56.9z"/>
	<path class="st29" d="M407.7-56.9c-1.1,1.3-2.3,2.6-3.4,3.9c-1.6-0.1-3.3-0.1-5-0.2c2.3-1.7,4.7-3.4,7-5.1
		C406.8-57.8,407.2-57.3,407.7-56.9z"/>
	<path class="st36" d="M348.5-146c-2.7,0.7-4.1,3.7-7.1,4c7.9-18.2,27-25.6,42.1-16.3c4.8,3,8.1,7.3,10.5,12.3
		c-3.5,0-6.3-2.1-9.2-3.5C374.9-154.2,355.1-152.4,348.5-146z"/>
	<path class="st37" d="M393.5-124c5.1-1.4,7.4,3.1,10.9,5.3c1.2,2.2,2.6,4.2,3.4,6.5c0.9,2.9,0.9,6.2-1.8,8.2
		c-3.1,2.2-6.6,1.3-9.7-0.7c1.3-1.7,3.2-1.4,5-1.7c2.5-0.4,3.9-1.8,3.6-4.4c-0.2-1.8-6-8.3-7.7-8.6c-2.1-0.3-3.1,0.7-3.3,2.7
		c-0.2,2.6,0.6,4.9,1.7,7.1c0.7,1.5,2.6,2.9,0.7,4.8C387.9-109.7,386.7-118,393.5-124z"/>
	<path class="st32" d="M275.4-20.2c3.6,0,2.8-2.7,3-4.8c1.2-1.2,2.4-0.5,2.7,0.7c0.4,2,1.5,2.6,3.2,3c1.4,0.4,2.9,1.3,2.9,3
		c0,1.8-1.5,1.9-2.9,1.8c-1.1-0.1-1.2,0.6-1.6,1.4c-1.6,3.5-1.7,3.5-3.9,0.7c-0.5-0.6-0.5-1.2-1.7-1.1
		C272.1-15.3,274.4-18.1,275.4-20.2z"/>
	<path class="st38" d="M289.7-32.9c1.7-0.6,2.5-2.6,4-3.8c1-0.9,2.2,0.5,2.6,1.6c0.5,1.6,2.1,1.5,3,2.4c0.7,0.6,1.1,2,0.8,2
		c-3.2-0.3-3.7,3.7-6.4,3.9c-1.2,0.1-1.5-1.1-1.1-2.2C293.7-31.9,289.5-30.3,289.7-32.9z"/>
	<path class="st38" d="M311.4-18c-0.1,1.5-1.3,2.5-1.9,2c-1.5-1.2-4.4-0.6-4.6-2.7c-0.1-1.2,1.9-2.6,3-3.9
		C309.1-21,310.3-19.4,311.4-18z"/>
	<path class="st39" d="M375.5-58c-0.7,0.2-1.7,0-2,1c-0.7-0.4-1.5-0.6-2.1-1.1c-0.6-0.5-2.1-0.9-1.3-2c0.7-1,1.7,0.1,2.5,0.4
		C373.6-59.2,374.6-58.6,375.5-58z"/>
	<path class="st40" d="M380.4-52.8c5.6,0.3,6.2,0.6,6.2,3.9C384.6-50.3,381.8-50.4,380.4-52.8z"/>
	<path class="st40" d="M386.5-47c0,1,0.1,2-0.1,2.9c-0.4,1.3-0.3,3.3-1.8,3.7c-1.5,0.3-2.5-1.2-3.3-2.4
		C384.4-42.4,384.8-45.5,386.5-47z"/>
	<path class="st40" d="M380.5-43.2c-2.4-1.2-4.9-2.4-7.3-3.7C376.4-47.3,379.2-46.8,380.5-43.2z"/>
	<path class="st41" d="M373.3-121c0.3,5.3,0.7,10.6,1,15.9c0.2,3.2-1,4.6-4.6,4.6c-10.4-0.1-10.5,0-10.2-10.4c0.1-4-0.9-8.1,1.1-12
		c0.7,0.4,1.5,0.8,1.8,1.6c1.1,4.1,0.4,8.2,0.5,12.4c0.1,2.7,0.8,4.5,4,4.4c3.1-0.1,3.2-2.1,3.3-4.4c0.2-3.9-0.9-8,0.9-11.8
		C371.7-121.5,372.5-121.6,373.3-121z"/>
	<path class="st42" d="M361.9-121.7c-0.5-0.4-0.9-0.8-1.4-1.2c3.3-1.2,6.7-1.2,10-0.8c1.4,0.2,3.6,0,2.7,2.7c-0.6,0-1.2,0-1.8,0
		C368.1-119.4,365-120.4,361.9-121.7z"/>
	<path class="st43" d="M396.3-104.8c-0.9-4.4-5-7.7-3.8-12.8c0.3-1.4-0.1-3.3,2-3.3c2,0,4.7-1.3,5.7,1.3c0.7,1.7,1.6,2.9,3,3.7
		c3.1,1.8,3.8,4.6,3,7.7c-0.9,3.3-3.8,3.2-6.5,3.1C398.6-105,397.4-104.8,396.3-104.8z"/>
	<path class="st44" d="M361.9-121.7c3.2,0.3,6.3,0.5,9.5,0.8c0,3.8,0.1,7.6,0.1,11.4c0,6.8-0.7,7.4-7.4,6.4
		c-1.5-0.2-2.5-0.4-2.4-2.3C361.9-110.9,361.9-116.3,361.9-121.7z"/>
	<path class="st45" d="M369-117c3,0.6,0,5.2,1.3,7.8c1.1,2.2-1.3,2.1-2.7,2.1c-3,0.1-5-0.9-4.4-4.3C363.6-113.6,361.7-117.5,369-117
		z"/>
	<path class="st46" d="M368.5-111.8c0,1.5-0.3,3-2.1,2.7c-2.4-0.4-1.2-2.6-1.6-4c-0.4-1.7,0.7-1.9,2-1.8
		C369.2-114.9,368.3-113,368.5-111.8z"/>
</g>
</svg>
